<?xml version="1.0" encoding="UTF-8" standalone="no"?>
<svg width="1500" height="200" xmlns="http://www.w3.org/2000/svg" version="1.1">
  <!-- Trapezoidal container with 45-degree cuts -->
  <polygon points="150,0 1350,0 1500,200 0,200" fill="white" stroke="red" stroke-width="4"/>

  <!-- Define red stripes starting from the left and repeating at a 45-degree angle -->
  <clipPath id="clip">
    <polygon points="150,0 1350,0 1500,200 0,200" />
  </clipPath>

  <!-- Create the diagonal red stripes within the trapezoid using clipping -->
  <g clip-path="url(#clip)">
    <!-- Manually create diagonal red bars at a 45-degree angle -->
    <rect x="140"  y="-140"  width="40" height="440" fill="red" transform="rotate(45 150 0)" />
    <rect x="240"  y="-240"  width="40" height="440" fill="red" transform="rotate(45 150 0)" />
    <rect x="340"  y="-340"  width="40" height="440" fill="red" transform="rotate(45 150 0)" />
    <rect x="440"  y="-440"  width="40" height="440" fill="red" transform="rotate(45 150 0)" />
    <rect x="540"  y="-540"  width="40" height="440" fill="red" transform="rotate(45 150 0)" />
    <rect x="640"  y="-640"  width="40" height="440" fill="red" transform="rotate(45 150 0)" />
    <rect x="740"  y="-740"  width="40" height="440" fill="red" transform="rotate(45 150 0)" />
    <rect x="840"  y="-840"  width="40" height="440" fill="red" transform="rotate(45 150 0)" />
    <rect x="940"  y="-940"  width="40" height="440" fill="red" transform="rotate(45 150 0)" />
    <rect x="1040" y="-1040" width="40" height="440" fill="red" transform="rotate(45 150 0)" />
    <rect x="1140" y="-1140" width="40" height="440" fill="red" transform="rotate(45 150 0)" />
  </g>
</svg>